<svg width="205" height="105" viewBox="0 0 205 105" fill="none" xmlns="http://www.w3.org/2000/svg">
<path d="M52 4.33334C48.5522 4.33334 45.2456 5.70298 42.8076 8.14095C40.3696 10.5789 39 13.8855 39 17.3333V52C39 55.4478 40.3696 58.7544 42.8076 61.1924C45.2456 63.6304 48.5522 65 52 65C55.4478 65 58.7544 63.6304 61.1924 61.1924C63.6304 58.7544 65 55.4478 65 52V17.3333C65 13.8855 63.6304 10.5789 61.1924 8.14095C58.7544 5.70298 55.4478 4.33334 52 4.33334Z" stroke="black" stroke-width="2" stroke-linecap="round" stroke-linejoin="round"/>
<path d="M82.3333 43.3333V52C82.3333 60.0449 79.1375 67.7603 73.4489 73.4489C67.7603 79.1375 60.0449 82.3333 52 82.3333C43.9551 82.3333 36.2397 79.1375 30.5511 73.4489C24.8625 67.7603 21.6667 60.0449 21.6667 52V43.3333" stroke="black" stroke-width="2" stroke-linecap="round" stroke-linejoin="round"/>
<path d="M52 82.3333V99.6667" stroke="black" stroke-width="2" stroke-linecap="round" stroke-linejoin="round"/>
<path d="M34.6667 99.6667H69.3334" stroke="black" stroke-width="2" stroke-linecap="round" stroke-linejoin="round"/>
<path fill-rule="evenodd" clip-rule="evenodd" d="M142.576 3.2394C135.445 5.1594 130.171 9.1664 126.716 15.2874C124.455 19.2934 122.923 20.8684 120.842 21.3254C116.273 22.3284 110.344 27.3764 107.417 32.7534C102.612 41.5824 102.887 51.3094 108.162 59.0824C110.165 62.0334 110.427 63.2634 109.793 66.7334C107.036 81.8074 118.644 95.6044 134.579 96.1944C139.056 96.3594 141.309 97.0794 145.121 99.5604C158.211 108.081 174.483 104.412 181.902 91.2654C184.097 87.3754 185.634 85.8104 187.704 85.3554C192.273 84.3524 198.202 79.3044 201.129 73.9274C205.862 65.2314 205.674 55.9294 200.603 47.8404C198.784 44.9384 198.455 43.1164 198.676 37.1764C198.875 31.8344 198.453 28.9054 197.02 25.6644C193.027 16.6394 183.977 10.6914 173.82 10.4174C169.446 10.2994 167.247 9.6014 163.425 7.1164C160.758 5.3824 156.348 3.4864 153.625 2.9024C147.825 1.6584 148.531 1.6364 142.576 3.2394ZM156.753 10.4494C158.964 11.3334 160.773 12.4274 160.773 12.8794C160.773 13.3314 155.823 16.5244 149.773 19.9754L138.773 26.2484V41.5444C138.773 49.9574 138.525 56.8404 138.221 56.8404C137.918 56.8404 135.896 55.8274 133.729 54.5904L129.788 52.3404L129.781 38.0584C129.772 22.4264 130.509 19.3234 135.383 14.4514C141.01 8.8274 148.972 7.3354 156.753 10.4494ZM183.479 19.4694C188.934 23.5434 192.033 28.4894 192.559 33.9624C193.156 40.1774 193.658 40.2434 180.197 32.3214C175.075 29.3064 170.4 26.8404 169.807 26.8404C169.215 26.8404 163.318 29.9904 156.703 33.8404C150.089 37.6904 144.248 40.8404 143.725 40.8404C143.201 40.8404 142.778 38.7024 142.784 36.0904L142.794 31.3404L150.534 26.8674C166.994 17.3544 168.772 16.6434 175.036 17.0744C178.742 17.3284 181.756 18.1844 183.479 19.4694ZM122.993 40.5904L123.273 53.3404L135.773 60.6154C142.648 64.6174 148.415 68.3054 148.588 68.8124C148.762 69.3184 147.039 70.6844 144.759 71.8474L140.615 73.9614L130.449 68.1554C114.183 58.8654 110.487 54.6404 110.487 45.3404C110.487 39.5004 112.435 35.1964 117.022 30.8964C122.355 25.8984 122.682 26.4294 122.993 40.5904ZM178.789 38.8954C190.103 45.4304 194.077 48.6654 196.505 53.3174C198.516 57.1694 198.496 65.5414 196.467 69.4654C194.806 72.6764 188.41 78.8404 186.738 78.8404C186.17 78.8404 185.773 73.7314 185.773 66.4084V53.9764L183.023 52.0864C181.51 51.0464 175.661 47.5544 170.023 44.3264C164.385 41.0984 159.773 38.1044 159.773 37.6724C159.773 36.9824 166.439 33.0004 167.789 32.8844C168.073 32.8604 173.023 35.5654 178.789 38.8954ZM160.445 43.9384L165.86 47.0374L165.566 53.5334L165.273 60.0294L159.714 63.1184L154.156 66.2064L148.464 62.9504L142.773 59.6934V53.3494V47.0054L148.023 43.9454C150.911 42.2614 153.668 40.8744 154.151 40.8624C154.634 40.8504 157.466 42.2344 160.445 43.9384ZM174.817 52.0904L178.758 54.3404L178.765 68.5254C178.774 84.1144 178.176 86.7284 173.462 91.7094C169.45 95.9484 165.092 97.8404 159.339 97.8404C154.808 97.8404 147.506 95.1404 148.004 93.6494C148.152 93.2074 152.998 90.0324 158.773 86.5934L169.273 80.3404L169.549 65.0904C169.701 56.7024 170.062 49.8404 170.351 49.8404C170.64 49.8404 172.65 50.8534 174.817 52.0904ZM165.764 70.5904L165.756 75.3404L153.514 82.3404C141.718 89.0854 141.03 89.3404 134.596 89.3404C127.177 89.3404 124.705 88.0724 119.438 81.5654C117.292 78.9134 116.351 76.5004 115.987 72.7184C115.393 66.5314 114.733 66.4464 128.348 74.3074C133.619 77.3504 138.458 79.8194 139.102 79.7934C139.746 79.7674 145.448 76.6304 151.773 72.8224C158.098 69.0134 163.836 65.8854 164.523 65.8694C165.353 65.8504 165.77 67.4374 165.764 70.5904Z" fill="black"/>
</svg>
