<?xml version="1.0" encoding="utf-8"?>
<!-- Generator: Adobe Illustrator 25.3.1, SVG Export Plug-In . SVG Version: 6.00 Build 0)  -->
<svg version="1.1" id="Layer_1" xmlns="http://www.w3.org/2000/svg" xmlns:xlink="http://www.w3.org/1999/xlink" x="0px" y="0px"
	 viewBox="0 0 800 800" style="enable-background:new 0 0 800 800;" xml:space="preserve">
<style type="text/css">
	.st0{fill:#EE334D;}
	.st1{fill:#875CA6;}
	.st2{fill:#F47B20;}
	.st3{fill:#51BAE4;}
	.st4{fill:#C872AE;}
	.st5{fill:#565FAB;}
	.st6{fill:#92C83E;}
</style>
<path class="st0" d="M799.49,401.01L684.54,286.07l114.95-114.94V401.01z"/>
<path class="st1" d="M469.85,665.42l-0.45-231.96L237.89,665.87L469.85,665.42z"/>
<path class="st2" d="M635.08,168.61l162.27,0.28L633.89,332.34l-162.27-0.28L635.08,168.61z"/>
<path class="st3" d="M140.3,98.55l329.51,329.51l-328.78,0.74L140.3,98.55z"/>
<path class="st4" d="M0.51,432.27h466l-231.97,233L0.51,432.27z"/>
<path class="st5" d="M635.63,502.7L473.07,665.26l-1.1-162.93L635.63,502.7z"/>
<path class="st6" d="M634.7,335.24L472.14,336l0.03,163.29l164.02-0.76L634.7,335.24z"/>
</svg>
