<?xml version="1.0" encoding="utf-8"?>
<!-- Generator: Adobe Illustrator 25.3.1, SVG Export Plug-In . SVG Version: 6.00 Build 0)  -->
<svg version="1.1" id="Layer_1" xmlns="http://www.w3.org/2000/svg" xmlns:xlink="http://www.w3.org/1999/xlink" x="0px" y="0px"
	 viewBox="0 0 800 800" style="enable-background:new 0 0 800 800;" xml:space="preserve">
<style type="text/css">
	.st0{fill:#5056E2;}
	.st1{fill:#A250E2;}
	.st2{fill:#FF7B00;}
	.st3{fill:#F165E8;}
	.st4{fill:#50BAE4;}
	.st5{fill:#F92949;}
	.st6{fill:#92C83E;}
</style>
<path class="st0" d="M302.73,786.61l-98.98-98.36l98.36-98.98L302.73,786.61z"/>
<path class="st1" d="M307.43,495.01v199.11l199.11-199.11H307.43z"/>
<path class="st2" d="M516.52,691.54l-98.55,98.79l-0.12-198.99l98.55-98.79L516.52,691.54z"/>
<path class="st3" d="M269.73,206.85l282.85,282.85l-282.22,0.63L269.73,206.85z"/>
<path class="st4" d="M558.34,487.69L275.49,204.84l282.22-0.63L558.34,487.69z"/>
<path class="st5" d="M618.34,796.08l-197.34-0.25l98.36-99.43L618.34,796.08z"/>
<path class="st6" d="M416.17,3.92l-97.71,98.63l98.63,98.59l98.59-99.51L416.17,3.92z"/>
</svg>
