<?xml version="1.0" encoding="utf-8"?>
<!-- Generator: Adobe Illustrator 25.3.1, SVG Export Plug-In . SVG Version: 6.00 Build 0)  -->
<svg version="1.1" id="Layer_1" xmlns="http://www.w3.org/2000/svg" xmlns:xlink="http://www.w3.org/1999/xlink" x="0px" y="0px"
	 viewBox="0 0 800 800" style="enable-background:new 0 0 800 800;" xml:space="preserve">
<style type="text/css">
	.st0{fill:#5056E2;}
	.st1{fill:#A250E2;}
	.st2{fill:#FF7B00;}
	.st3{fill:#F165E8;}
	.st4{fill:#50BAE4;}
	.st5{fill:#F92949;}
	.st6{fill:#92C83E;}
</style>
<path class="st0" d="M202.13,791.42L60.3,650.47l140.95-141.84L202.13,791.42z"/>
<path class="st1" d="M788.62,296.51l0-285.34L503.28,296.51L788.62,296.51z"/>
<path class="st2" d="M209.94,504.45l199.96,0.25L208.38,302.68L8.42,302.44L209.94,504.45z"/>
<path class="st3" d="M218.35,303.04h573.23L506.24,589.65L218.35,303.04z"/>
<path class="st4" d="M208.03,8.57h573.23L495.91,295.18L208.03,8.57z"/>
<path class="st5" d="M208.18,791.43l0.36-282.8l142.49,140.95L208.18,791.43z"/>
<path class="st6" d="M596.8,508.72L456.46,649.74l141.02,141.6l141.61-142.28L596.8,508.72z"/>
</svg>
