<?xml version="1.0" encoding="utf-8"?>
<!-- Generator: Adobe Illustrator 25.3.1, SVG Export Plug-In . SVG Version: 6.00 Build 0)  -->
<svg version="1.1" id="Layer_1" xmlns="http://www.w3.org/2000/svg" xmlns:xlink="http://www.w3.org/1999/xlink" x="0px" y="0px"
	 viewBox="0 0 800 800" style="enable-background:new 0 0 800 800;" xml:space="preserve">
<style type="text/css">
	.st0{fill:#5056E2;}
	.st1{fill:#A250E2;}
	.st2{fill:#FF7B00;}
	.st3{fill:#F165E8;}
	.st4{fill:#50BAE4;}
	.st5{fill:#F92949;}
	.st6{fill:#92C83E;}
</style>
<path class="st0" d="M258.38,646.67l-53.11,95.57l-95.57-53.11L258.38,646.67z"/>
<path class="st1" d="M360.43,644.5l0-156.01L204.41,644.5L360.43,644.5z"/>
<path class="st2" d="M645.81,161.47l105.23-29.66L614.97,55.68L509.73,85.35L645.81,161.47z"/>
<path class="st3" d="M364.26,420.82l221.62,221.62l-221.13,0.49L364.26,420.82z"/>
<path class="st4" d="M430.08,166.95l0,313.42L273.36,324.36L430.08,166.95z"/>
<path class="st5" d="M551.68,791.49l-53.56-145.05l99.84,45.18L551.68,791.49z"/>
<path class="st6" d="M428.63,8.51l-76.56,77.28l77.28,77.25l77.25-77.97L428.63,8.51z"/>
</svg>
