<?xml version="1.0" encoding="utf-8"?>
<!-- Generator: Adobe Illustrator 25.3.1, SVG Export Plug-In . SVG Version: 6.00 Build 0)  -->
<svg version="1.1" id="Layer_1" xmlns="http://www.w3.org/2000/svg" xmlns:xlink="http://www.w3.org/1999/xlink" x="0px" y="0px"
	 viewBox="0 0 800 800" style="enable-background:new 0 0 800 800;" xml:space="preserve">
<style type="text/css">
	.st0{fill:#5056E2;}
	.st1{fill:#A250E2;}
	.st2{fill:#FF7B00;}
	.st3{fill:#F165E8;}
	.st4{fill:#50BAE4;}
	.st5{fill:#F92949;}
	.st6{fill:#92C83E;}
</style>
<path class="st0" d="M510.57,400.38L399.29,512.35L287.31,401.07L510.57,400.38z"/>
<path class="st1" d="M398.94,6.05L239.64,165.35l318.59,0L398.94,6.05z"/>
<path class="st2" d="M632.14,518.91l111.77,111.49l-225.27,0.28L406.87,519.19L632.14,518.91z"/>
<path class="st3" d="M508.65,629.39H56.09l225.28-226.28L508.65,629.39z"/>
<path class="st4" d="M625.22,395.27H172.66L397.93,169L625.22,395.27z"/>
<path class="st5" d="M629.09,513.81l-223.27-0.29l111.28-112.5L629.09,513.81z"/>
<path class="st6" d="M483.98,635.79l-157.07,0.38l-0.33,157.78l158.48-0.37L483.98,635.79z"/>
</svg>
