<svg width="133" height="132" viewBox="0 0 133 132" fill="none" xmlns="http://www.w3.org/2000/svg">
<path fill-rule="evenodd" clip-rule="evenodd" d="M24.038 0.633582C23.213 0.964582 22.207 1.72958 21.803 2.33458C21.399 2.93958 21.062 12.5316 21.053 23.6496C21.039 42.6206 21.157 43.9276 22.972 44.8996C24.036 45.4686 25.836 45.9346 26.972 45.9346C28.81 45.9346 29.038 46.5426 29.038 51.4346C29.038 55.2456 29.432 56.9346 30.322 56.9346C31.028 56.9346 34.051 54.4596 37.038 51.4346L42.47 45.9346H53.599C66.911 45.9346 68.038 45.2456 68.038 37.1056V31.9346H71.583C76.527 31.9346 80.049 28.2956 80.006 23.2296C79.959 17.5876 76.264 13.9346 70.604 13.9346C68.205 13.9346 68.038 13.6216 68.038 9.12558C68.038 0.450582 68.071 0.463582 45.37 0.233582C34.463 0.123582 24.863 0.303582 24.038 0.633582ZM71.407 1.45458C71.754 2.35858 72.038 4.63658 72.038 6.51658C72.038 8.93658 72.49 9.93458 73.588 9.93458C79.582 9.93458 85.88 18.7786 84.482 25.2336C83.457 29.9716 80.49 33.5906 76.014 35.5656C72.781 36.9916 72.038 37.8286 72.038 40.0456C72.038 41.5446 71.765 43.4826 71.431 44.3526C70.904 45.7256 72.063 45.9346 80.215 45.9346H89.606L95.038 51.4346C98.025 54.4596 101.048 56.9346 101.754 56.9346C102.644 56.9346 103.038 55.2456 103.038 51.4346C103.038 46.5426 103.266 45.9346 105.104 45.9346C106.24 45.9346 108.04 45.4686 109.104 44.8996C110.919 43.9276 111.037 42.6206 111.023 23.6496C111.014 12.5316 110.581 2.75958 110.061 1.93458C109.285 0.705582 105.657 0.378582 89.945 0.122582C72.496 -0.161418 70.833 -0.0414183 71.407 1.45458ZM24.538 61.7956C20.223 64.4606 18.37 66.8866 17.151 71.4666C14.272 82.2886 24.33 92.5006 35.385 89.9796C48.46 86.9966 51.3 68.9426 39.797 61.9296C35.619 59.3816 28.545 59.3196 24.538 61.7956ZM92.279 61.9296C80.776 68.9426 83.616 86.9966 96.691 89.9796C101.974 91.1846 106.942 89.6606 110.84 85.6386C116.569 79.7286 116.996 71.9656 111.946 65.5456C107.433 59.8076 98.464 58.1586 92.279 61.9296ZM14.457 95.8316C8.522 98.5276 3.278 104.388 1.528 110.28C-0.552997 117.287 -0.494997 130.517 1.62 131.328C2.49 131.662 16.35 131.935 32.42 131.935C53.812 131.935 61.959 131.614 62.838 130.735C64.548 129.025 64.336 117.302 62.482 111.057C59.764 101.906 50.207 93.9346 41.953 93.9346C38.754 93.9346 38.249 94.3896 35.101 100.117L31.702 106.3L28.656 100.117C25.775 94.2686 25.42 93.9356 22.074 93.9566C20.129 93.9686 16.702 94.8126 14.457 95.8316ZM82.538 95.8006C76.915 98.3616 71.453 104.8 69.594 111.057C67.74 117.302 67.528 129.025 69.238 130.735C70.117 131.614 78.264 131.935 99.656 131.935C115.726 131.935 129.586 131.662 130.456 131.328C132.571 130.517 132.629 117.287 130.548 110.28C127.974 101.612 118.404 94.0086 110.002 93.9566C106.656 93.9356 106.301 94.2686 103.42 100.117L100.374 106.3L96.975 100.117C93.801 94.3426 93.344 93.9356 90.057 93.9566C88.122 93.9686 84.738 94.7986 82.538 95.8006Z" fill="#50BAE4"/>
</svg>
