<?xml version="1.0" encoding="utf-8"?>
<!-- Generator: Adobe Illustrator 25.3.1, SVG Export Plug-In . SVG Version: 6.00 Build 0)  -->
<svg version="1.1" id="Layer_1" xmlns="http://www.w3.org/2000/svg" xmlns:xlink="http://www.w3.org/1999/xlink" x="0px" y="0px"
	 viewBox="0 0 800 800" style="enable-background:new 0 0 800 800;" xml:space="preserve">
<style type="text/css">
	.st0{fill:#5056E2;}
	.st1{fill:#A250E2;}
	.st2{fill:#FF7B00;}
	.st3{fill:#F165E8;}
	.st4{fill:#50BAE4;}
	.st5{fill:#F92949;}
	.st6{fill:#92C83E;}
</style>
<path class="st0" d="M713.45,206.74l0.42,133.37l-133.37,0.42L713.45,206.74z"/>
<path class="st1" d="M242.86,789.91h190.32L242.86,599.59V789.91z"/>
<path class="st2" d="M383.92,337.78l133.37,0.16L382.89,203.2l-133.37-0.16L383.92,337.78z"/>
<path class="st3" d="M242.44,586.69l0-382.34L433.6,394.67L242.44,586.69z"/>
<path class="st4" d="M436.1,401.28l0,382.34L244.93,593.3L436.1,401.28z"/>
<path class="st5" d="M390.56,343.81l188.63,0.24l-94.01,94.8L390.56,343.81z"/>
<path class="st6" d="M382.1,9.97l-93.61,94.06l94.06,94.45l94.45-94.9L382.1,9.97z"/>
</svg>
