<?xml version="1.0" encoding="utf-8"?>
<!-- Generator: Adobe Illustrator 25.3.1, SVG Export Plug-In . SVG Version: 6.00 Build 0)  -->
<svg version="1.1" id="Layer_1" xmlns="http://www.w3.org/2000/svg" xmlns:xlink="http://www.w3.org/1999/xlink" x="0px" y="0px"
	 viewBox="0 0 800 800" style="enable-background:new 0 0 800 800;" xml:space="preserve">
<style type="text/css">
	.st0{fill:#5056E2;}
	.st1{fill:#A250E2;}
	.st2{fill:#FF7B00;}
	.st3{fill:#F165E8;}
	.st4{fill:#50BAE4;}
	.st5{fill:#F92949;}
	.st6{fill:#92C83E;}
</style>
<path class="st0" d="M450.55,586.49l-0.59-187.07l187.07-0.59L450.55,586.49z"/>
<path class="st1" d="M546.19,11.48L357.43,200.24l377.53,0L546.19,11.48z"/>
<path class="st2" d="M640.48,594.29l0.23-187.07L451.72,595.74l-0.23,187.07L640.48,594.29z"/>
<path class="st3" d="M65.05,408.14l379.21,379.21l-378.36,0.84L65.05,408.14z"/>
<path class="st4" d="M444.26,778.88L65.05,399.67l378.36-0.84L444.26,778.88z"/>
<path class="st5" d="M451.73,787.85l187.32-186.84l1.02,187.51L451.73,787.85z"/>
<path class="st6" d="M636.11,205.83l-186.13,0.45l-0.39,186.96l187.8-0.44L636.11,205.83z"/>
</svg>
