<?xml version="1.0" encoding="utf-8"?>
<!-- Generator: Adobe Illustrator 25.3.1, SVG Export Plug-In . SVG Version: 6.00 Build 0)  -->
<svg version="1.1" id="Layer_1" xmlns="http://www.w3.org/2000/svg" xmlns:xlink="http://www.w3.org/1999/xlink" x="0px" y="0px"
	 viewBox="0 0 800 800" style="enable-background:new 0 0 800 800;" xml:space="preserve">
<style type="text/css">
	.st0{fill:#5056E2;}
	.st1{fill:#A250E2;}
	.st2{fill:#FF7B00;}
	.st3{fill:#F165E8;}
	.st4{fill:#50BAE4;}
	.st5{fill:#F92949;}
	.st6{fill:#92C83E;}
</style>
<path class="st0" d="M348.37,202.03l74.8-75.27l75.27,74.8L348.37,202.03z"/>
<path class="st1" d="M499.11,206.32l-151.42,0l151.42,151.42L499.11,206.32z"/>
<path class="st2" d="M380.62,716.16l74.94,75.12l0.19-151.42l-74.94-75.12L380.62,716.16z"/>
<path class="st3" d="M498.92,370.66v304.19L346.83,523.43L498.92,370.66z"/>
<path class="st4" d="M346.31,516.29l0-304.19L498.4,363.53L346.31,516.29z"/>
<path class="st5" d="M450.96,794.63l-150.07-0.19l74.8-75.62L450.96,794.63z"/>
<path class="st6" d="M386.97,5.37L312.5,80.2l74.83,75.14l75.15-75.5L386.97,5.37z"/>
</svg>
